# xmcd CD database file
# Copyright (C) 1993-1998 Ti Kan
# 
# Track frame offsets:
#     150
#     15580
#     30930
#     49742
#     70825
# 
# Disc length: 1178 seconds
# 
# Revision: 1
# Processed by: cddbd v1.4b41PL1 Copyright (c) Steve Scherf et al.
# Submitted via: DiscPlay 4.0.4
# 
DISCID=32049805
DTITLE=Sherry Rich - Sherry Rich and the Grievous Angels
DYEAR=1900
DGENRE=
TTITLE0=Get Your Kicks
TTITLE1=Wild Dogs
TTITLE2=When Love Calls
TTITLE3=Beautiful, Talented and Dead
TTITLE4=You Can Have That Man
EXTD=
EXTT0=
EXTT1=
EXTT2=
EXTT3=
EXTT4=
PLAYORDER=
